<svg width="180" height="194" viewBox="0 0 180 194" fill="none" xmlns="http://www.w3.org/2000/svg">
<circle cx="2" cy="2" r="2" fill="#7ED2D0"/>
<circle cx="2" cy="87" r="2" fill="#7ED2D0"/>
<circle cx="2" cy="20" r="2" fill="#7ED2D0"/>
<circle cx="2" cy="105" r="2" fill="#7ED2D0"/>
<circle cx="2" cy="37" r="2" fill="#7ED2D0"/>
<circle cx="2" cy="122" r="2" fill="#7ED2D0"/>
<circle cx="2" cy="54" r="2" fill="#7ED2D0"/>
<circle cx="2" cy="139" r="2" fill="#7ED2D0"/>
<circle cx="2" cy="174" r="2" fill="#7ED2D0"/>
<circle cx="2" cy="72" r="2" fill="#7ED2D0"/>
<circle cx="2" cy="157" r="2" fill="#7ED2D0"/>
<circle cx="2" cy="192" r="2" fill="#7ED2D0"/>
<circle cx="72" cy="2" r="2" fill="#7ED2D0"/>
<circle cx="72" cy="87" r="2" fill="#7ED2D0"/>
<circle cx="72" cy="20" r="2" fill="#7ED2D0"/>
<circle cx="72" cy="105" r="2" fill="#7ED2D0"/>
<circle cx="72" cy="37" r="2" fill="#7ED2D0"/>
<circle cx="72" cy="122" r="2" fill="#7ED2D0"/>
<circle cx="72" cy="54" r="2" fill="#7ED2D0"/>
<circle cx="72" cy="139" r="2" fill="#7ED2D0"/>
<circle cx="72" cy="174" r="2" fill="#7ED2D0"/>
<circle cx="72" cy="72" r="2" fill="#7ED2D0"/>
<circle cx="72" cy="157" r="2" fill="#7ED2D0"/>
<circle cx="72" cy="192" r="2" fill="#7ED2D0"/>
<circle cx="37" cy="2" r="2" fill="#7ED2D0"/>
<circle cx="37" cy="87" r="2" fill="#7ED2D0"/>
<circle cx="37" cy="20" r="2" fill="#7ED2D0"/>
<circle cx="37" cy="105" r="2" fill="#7ED2D0"/>
<circle cx="37" cy="37" r="2" fill="#7ED2D0"/>
<circle cx="37" cy="122" r="2" fill="#7ED2D0"/>
<circle cx="37" cy="54" r="2" fill="#7ED2D0"/>
<circle cx="37" cy="139" r="2" fill="#7ED2D0"/>
<circle cx="37" cy="174" r="2" fill="#7ED2D0"/>
<circle cx="37" cy="72" r="2" fill="#7ED2D0"/>
<circle cx="37" cy="157" r="2" fill="#7ED2D0"/>
<circle cx="37" cy="192" r="2" fill="#7ED2D0"/>
<circle cx="107" cy="2" r="2" fill="#7ED2D0"/>
<circle cx="107" cy="87" r="2" fill="#7ED2D0"/>
<circle cx="107" cy="20" r="2" fill="#7ED2D0"/>
<circle cx="107" cy="105" r="2" fill="#7ED2D0"/>
<circle cx="107" cy="37" r="2" fill="#7ED2D0"/>
<circle cx="107" cy="122" r="2" fill="#7ED2D0"/>
<circle cx="107" cy="54" r="2" fill="#7ED2D0"/>
<circle cx="107" cy="139" r="2" fill="#7ED2D0"/>
<circle cx="107" cy="174" r="2" fill="#7ED2D0"/>
<circle cx="107" cy="72" r="2" fill="#7ED2D0"/>
<circle cx="107" cy="157" r="2" fill="#7ED2D0"/>
<circle cx="107" cy="192" r="2" fill="#7ED2D0"/>
<circle cx="142" cy="2" r="2" fill="#7ED2D0"/>
<circle cx="142" cy="87" r="2" fill="#7ED2D0"/>
<circle cx="142" cy="20" r="2" fill="#7ED2D0"/>
<circle cx="142" cy="105" r="2" fill="#7ED2D0"/>
<circle cx="142" cy="37" r="2" fill="#7ED2D0"/>
<circle cx="142" cy="122" r="2" fill="#7ED2D0"/>
<circle cx="142" cy="54" r="2" fill="#7ED2D0"/>
<circle cx="142" cy="139" r="2" fill="#7ED2D0"/>
<circle cx="142" cy="174" r="2" fill="#7ED2D0"/>
<circle cx="142" cy="72" r="2" fill="#7ED2D0"/>
<circle cx="142" cy="157" r="2" fill="#7ED2D0"/>
<circle cx="142" cy="192" r="2" fill="#7ED2D0"/>
<circle cx="20" cy="2" r="2" fill="#7ED2D0"/>
<circle cx="20" cy="87" r="2" fill="#7ED2D0"/>
<circle cx="20" cy="20" r="2" fill="#7ED2D0"/>
<circle cx="20" cy="105" r="2" fill="#7ED2D0"/>
<circle cx="20" cy="37" r="2" fill="#7ED2D0"/>
<circle cx="20" cy="122" r="2" fill="#7ED2D0"/>
<circle cx="20" cy="54" r="2" fill="#7ED2D0"/>
<circle cx="20" cy="139" r="2" fill="#7ED2D0"/>
<circle cx="20" cy="174" r="2" fill="#7ED2D0"/>
<circle cx="20" cy="72" r="2" fill="#7ED2D0"/>
<circle cx="20" cy="157" r="2" fill="#7ED2D0"/>
<circle cx="20" cy="192" r="2" fill="#7ED2D0"/>
<circle cx="90" cy="2" r="2" fill="#7ED2D0"/>
<circle cx="90" cy="87" r="2" fill="#7ED2D0"/>
<circle cx="90" cy="20" r="2" fill="#7ED2D0"/>
<circle cx="90" cy="105" r="2" fill="#7ED2D0"/>
<circle cx="90" cy="37" r="2" fill="#7ED2D0"/>
<circle cx="90" cy="122" r="2" fill="#7ED2D0"/>
<circle cx="90" cy="54" r="2" fill="#7ED2D0"/>
<circle cx="90" cy="139" r="2" fill="#7ED2D0"/>
<circle cx="90" cy="174" r="2" fill="#7ED2D0"/>
<circle cx="90" cy="72" r="2" fill="#7ED2D0"/>
<circle cx="90" cy="157" r="2" fill="#7ED2D0"/>
<circle cx="90" cy="192" r="2" fill="#7ED2D0"/>
<circle cx="55" cy="2" r="2" fill="#7ED2D0"/>
<circle cx="55" cy="87" r="2" fill="#7ED2D0"/>
<circle cx="55" cy="20" r="2" fill="#7ED2D0"/>
<circle cx="55" cy="105" r="2" fill="#7ED2D0"/>
<circle cx="55" cy="37" r="2" fill="#7ED2D0"/>
<circle cx="55" cy="122" r="2" fill="#7ED2D0"/>
<circle cx="55" cy="54" r="2" fill="#7ED2D0"/>
<circle cx="55" cy="139" r="2" fill="#7ED2D0"/>
<circle cx="55" cy="174" r="2" fill="#7ED2D0"/>
<circle cx="55" cy="72" r="2" fill="#7ED2D0"/>
<circle cx="55" cy="157" r="2" fill="#7ED2D0"/>
<circle cx="55" cy="192" r="2" fill="#7ED2D0"/>
<circle cx="125" cy="2" r="2" fill="#7ED2D0"/>
<circle cx="125" cy="87" r="2" fill="#7ED2D0"/>
<circle cx="125" cy="20" r="2" fill="#7ED2D0"/>
<circle cx="125" cy="105" r="2" fill="#7ED2D0"/>
<circle cx="125" cy="37" r="2" fill="#7ED2D0"/>
<circle cx="125" cy="122" r="2" fill="#7ED2D0"/>
<circle cx="125" cy="54" r="2" fill="#7ED2D0"/>
<circle cx="125" cy="139" r="2" fill="#7ED2D0"/>
<circle cx="125" cy="174" r="2" fill="#7ED2D0"/>
<circle cx="125" cy="72" r="2" fill="#7ED2D0"/>
<circle cx="125" cy="157" r="2" fill="#7ED2D0"/>
<circle cx="125" cy="192" r="2" fill="#7ED2D0"/>
<circle cx="160" cy="2" r="2" fill="#7ED2D0"/>
<circle cx="178" cy="2" r="2" fill="#7ED2D0"/>
<circle cx="160" cy="87" r="2" fill="#7ED2D0"/>
<circle cx="178" cy="87" r="2" fill="#7ED2D0"/>
<circle cx="160" cy="20" r="2" fill="#7ED2D0"/>
<circle cx="178" cy="20" r="2" fill="#7ED2D0"/>
<circle cx="160" cy="105" r="2" fill="#7ED2D0"/>
<circle cx="178" cy="105" r="2" fill="#7ED2D0"/>
<circle cx="160" cy="37" r="2" fill="#7ED2D0"/>
<circle cx="178" cy="37" r="2" fill="#7ED2D0"/>
<circle cx="160" cy="122" r="2" fill="#7ED2D0"/>
<circle cx="178" cy="122" r="2" fill="#7ED2D0"/>
<circle cx="160" cy="54" r="2" fill="#7ED2D0"/>
<circle cx="178" cy="54" r="2" fill="#7ED2D0"/>
<circle cx="160" cy="139" r="2" fill="#7ED2D0"/>
<circle cx="178" cy="139" r="2" fill="#7ED2D0"/>
<circle cx="160" cy="174" r="2" fill="#7ED2D0"/>
<circle cx="178" cy="174" r="2" fill="#7ED2D0"/>
<circle cx="160" cy="72" r="2" fill="#7ED2D0"/>
<circle cx="178" cy="72" r="2" fill="#7ED2D0"/>
<circle cx="160" cy="157" r="2" fill="#7ED2D0"/>
<circle cx="178" cy="157" r="2" fill="#7ED2D0"/>
<circle cx="160" cy="192" r="2" fill="#7ED2D0"/>
<circle cx="178" cy="192" r="2" fill="#7ED2D0"/>
</svg>
